<svg width="28" height="25" viewBox="0 0 28 25" fill="none" xmlns="http://www.w3.org/2000/svg">
<mask id="mask0" mask-type="alpha" maskUnits="userSpaceOnUse" x="0" y="0" width="28" height="25">
<rect x="0.915039" width="26.916" height="24.2363" fill="#192742"/>
</mask>
<g>
<path fill-rule="evenodd" clip-rule="evenodd" d="M12.0589 12.6586V23.9442C12.0589 24.1072 12.1765 24.2363 12.325 24.2363H16.1428C16.2913 24.2363 16.4088 24.1072 16.4088 23.9442V12.4751H19.1747C19.3108 12.4751 19.4284 12.3596 19.4408 12.2033L19.7068 8.75174C19.7192 8.58188 19.5955 8.4324 19.4408 8.4324H16.4088V5.9796C16.4088 5.40207 16.8358 4.94005 17.3555 4.94005H19.4903C19.6388 4.94005 19.7563 4.81095 19.7563 4.64788V1.1895C19.7563 1.02643 19.6388 0.897339 19.4903 0.897339H15.8891C13.7729 0.897339 12.0589 2.77941 12.0589 5.10311V8.4324H10.1532C10.0047 8.4324 9.88708 8.5615 9.88708 8.72456V12.1762C9.88708 12.3392 10.0047 12.4683 10.1532 12.4683H12.0589V12.6586Z" fill="black"/>
</g>
</svg>
