<svg width="28" height="25" viewBox="0 0 28 25" fill="none" xmlns="http://www.w3.org/2000/svg">
<mask id="mask0" mask-type="alpha" maskUnits="userSpaceOnUse" x="0" y="0" width="28" height="25">
<rect x="0.897461" y="0.0185547" width="26.916" height="24.2366" fill="#C4C4C4"/>
</mask>
<g mask="url(#mask0)">
<path d="M20.4485 8.14555C19.8093 8.14555 19.2858 8.66379 19.2858 9.30884C19.2858 9.94837 19.8038 10.4721 20.4485 10.4721C21.0877 10.4721 21.6112 9.95388 21.6112 9.30884C21.6057 8.66379 21.0877 8.14555 20.4485 8.14555ZM15.2852 9.63411C12.5961 9.63411 10.4085 11.8229 10.4085 14.5133C10.4085 17.2037 12.5961 19.3925 15.2852 19.3925C17.9743 19.3925 20.1619 17.2037 20.1619 14.5133C20.1619 11.8229 17.9743 9.63411 15.2852 9.63411ZM15.2852 17.6338C13.5604 17.6338 12.1608 16.2334 12.1608 14.5078C12.1608 12.7822 13.5604 11.3818 15.2852 11.3818C17.01 11.3818 18.4096 12.7822 18.4096 14.5078C18.4096 16.2334 17.01 17.6338 15.2852 17.6338ZM25.1213 10.4556C25.1213 7.16971 22.4598 4.50684 19.1756 4.50684H11.3287C8.04448 4.50684 5.38293 7.16971 5.38293 10.4556V18.3064C5.38293 21.5923 8.04448 24.2551 11.3287 24.2551H19.1756C22.4598 24.2551 25.1213 21.5923 25.1213 18.3064V10.4556ZM23.2588 18.3119C23.2588 20.5668 21.4293 22.3972 19.1756 22.3972H11.3287C9.07493 22.3972 7.24547 20.5668 7.24547 18.3119V10.4556C7.24547 8.20068 9.07493 6.3703 11.3287 6.3703H19.1756C21.4293 6.3703 23.2588 8.20068 23.2588 10.4556V18.3119Z" fill="white"/>
</g>
</svg>
