<svg width="188" height="42" viewBox="0 0 188 42" fill="none" xmlns="http://www.w3.org/2000/svg">
<path fill-rule="evenodd" clip-rule="evenodd" d="M22.0699 0H21.2999L21.3199 0.0400085C16.2899 0.420013 12.3099 4.56 12.1899 9.66H22.1199H22.8899L22.8699 9.70001C27.9799 10.09 32.0199 14.35 32.0199 19.56C32.0199 19.595 32.0174 19.6325 32.0149 19.67C32.0124 19.7075 32.0099 19.745 32.0099 19.78H32.4099L44.2 31.92V0H22.0699ZM61.5102 0H51.7002V18.55H55.5202V12.35H61.5102C64.0302 12.35 65.2202 11.16 65.2202 8.64001V3.70999C65.2202 1.19 64.0302 0 61.5102 0ZM61.4002 8.32001C61.4002 8.72 61.2702 8.85001 60.8702 8.85001H55.5202V3.5H60.8702C61.2702 3.5 61.4002 3.63 61.4002 4.03V8.32001ZM67.6104 3.70999V14.84C67.6104 17.36 68.8004 18.55 71.3203 18.55H78.1303C80.6503 18.55 81.8403 17.36 81.8403 14.84V3.70999C81.8403 1.19 80.6503 0 78.1303 0H71.3203C68.8004 0 67.6104 1.19 67.6104 3.70999ZM78.0204 14.52C78.0204 14.92 77.8904 15.05 77.4904 15.05V15.06H71.9503C71.5504 15.06 71.4203 14.93 71.4203 14.53V4.03C71.4203 3.63 71.5504 3.5 71.9503 3.5H77.4904C77.8904 3.5 78.0204 3.63 78.0204 4.03V14.52ZM99.4103 18.55H95.3003L92.2303 12H89.1603V18.55H85.3403V0H95.1203C97.6403 0 98.8303 1.19 98.8303 3.70999V8.19C98.8303 10.28 98.0103 11.48 96.2603 11.79L99.4103 18.55ZM94.4803 8.60999C94.8803 8.60999 95.0103 8.48001 95.0103 8.07999V3.98001C95.0103 3.57999 94.8803 3.45001 94.4803 3.45001H89.1503V8.62H94.4803V8.60999ZM100.63 3.45001H105.66V18.56H109.48V3.45001H114.52V0H100.63V3.45001ZM118.42 14.52L117.28 18.55H113.25L118.9 0H124.47L130.12 18.55H125.93L124.78 14.52H118.42ZM123.8 11.03L121.6 3.23999L119.4 11.03H123.8ZM136.21 0H132.39V18.55H144.21V15.05H136.21V0ZM51.7002 22.6499H61.8502C64.3702 22.6499 65.5602 23.8399 65.5602 26.3599V37.4899C65.5602 40.0099 64.3702 41.1999 61.8502 41.1999H51.7002V22.6499ZM61.2202 37.7099C61.6202 37.7099 61.7502 37.5799 61.7502 37.1799V26.6799C61.7502 26.2799 61.6202 26.1499 61.2202 26.1499H55.5202V37.7099H61.2202ZM81.5503 22.6499H69.0703V41.2099H81.5503V37.7099H72.8803V33.4399H79.9003V29.9899H72.8803V26.1499H81.5503V22.6499ZM90.8003 22.6499H100.61C103.13 22.6499 104.32 23.8399 104.32 26.3599V31.2899C104.32 33.8099 103.13 34.9999 100.61 34.9999H94.6203V41.1999H90.8003V22.6499ZM99.9703 31.4999C100.37 31.4999 100.5 31.3699 100.5 30.9699V26.6799C100.5 26.2799 100.37 26.1499 99.9703 26.1499H94.6203V31.4999H99.9703ZM110.98 22.6499H107.16V41.1999H118.98V37.6999H110.98V22.6499ZM125.13 37.1799L123.99 41.2099H119.96L125.61 22.6599H131.18L136.83 41.2099H132.64L131.49 37.1799H125.13ZM130.51 33.6799L128.31 25.8899L126.11 33.6799H130.51ZM143.08 22.6499H139.1V41.1999H142.81V28.8199L150.1 41.1999H153.81V22.6499H150.1V34.5999L143.08 22.6499ZM157.31 37.4899V26.3599C157.31 23.8399 158.5 22.6499 161.02 22.6499H167.83C170.35 22.6499 171.54 23.8399 171.54 26.3599V37.4899C171.54 40.0099 170.35 41.1999 167.83 41.1999H161.02C158.5 41.1999 157.31 40.0099 157.31 37.4899ZM167.19 37.7099C167.59 37.7099 167.72 37.5799 167.72 37.1799V26.6799C167.72 26.2799 167.59 26.1499 167.19 26.1499H161.65C161.25 26.1499 161.12 26.2799 161.12 26.6799V37.1799C161.12 37.5799 161.25 37.7099 161.65 37.7099H167.19ZM174.48 35.1599V37.4899C174.48 40.0099 175.68 41.1999 178.19 41.1899H184.29C186.81 41.1899 188 39.9999 188 37.4799V34.4099C188 32.0199 186.51 31.0899 184.18 30.5899L179.25 29.5299C178.56 29.3699 178.35 29.2099 178.35 28.6299V26.6199C178.35 26.2199 178.48 26.0899 178.88 26.0899H183.44C183.84 26.0899 183.97 26.2199 183.97 26.6199V28.4799H187.68V26.3599C187.68 23.8399 186.49 22.6499 183.97 22.6499H178.24C175.72 22.6499 174.53 23.8399 174.53 26.3599V29.2199C174.53 31.6099 176.02 32.5399 178.35 33.0399L183.28 34.0999C183.97 34.2599 184.18 34.4199 184.18 34.9999V37.2299C184.18 37.6299 184.05 37.7599 183.65 37.7599H178.72C178.32 37.7599 178.19 37.6299 178.19 37.2299V35.1599H174.48ZM12.18 9.6499C12.18 9.7399 12.17 9.81992 12.17 9.8999C12.17 15.3599 16.59 19.7799 22.05 19.7799H32C31.89 25.1299 27.52 29.4299 22.14 29.4299H11.79L0 41.5699V9.6499H8.13H12.18Z" fill="white"/>
</svg>
