<svg width="27" height="25" viewBox="0 0 27 25" fill="none" xmlns="http://www.w3.org/2000/svg">
<mask id="mask0" mask-type="alpha" maskUnits="userSpaceOnUse" x="0" y="0" width="27" height="25">
<rect width="26.916" height="24.2363" fill="#192742"/>
</mask>
<g>
<path d="M25.0428 8.44777C24.331 8.76116 23.5453 8.95049 22.7798 9.07454C23.1424 9.01578 23.6796 8.36943 23.8945 8.1148C24.2236 7.71655 24.4989 7.26606 24.6466 6.7764C24.6668 6.73722 24.6802 6.69152 24.6399 6.65888C24.5929 6.63929 24.5593 6.65235 24.519 6.66541C23.6595 7.10937 22.7731 7.43581 21.8262 7.66432C21.7456 7.6839 21.6919 7.66432 21.6382 7.61861C21.5576 7.53374 21.4838 7.44886 21.4032 7.38358C21.007 7.05713 20.5772 6.79598 20.1004 6.60665C19.4692 6.35855 18.7775 6.24756 18.0993 6.29326C17.4412 6.33243 16.7898 6.51524 16.2056 6.81557C15.6147 7.11589 15.0909 7.52721 14.6745 8.02993C14.2448 8.54571 13.9224 9.15942 13.7613 9.8123C13.6068 10.4391 13.6135 11.0593 13.7143 11.6926C13.7277 11.7971 13.721 11.8101 13.6202 11.7971C9.92688 11.2617 6.85802 9.97552 4.3734 7.22036C4.26595 7.10284 4.20551 7.10284 4.11822 7.22688C3.03035 8.81339 3.56086 11.3596 4.91733 12.6132C5.09864 12.7829 5.28666 12.9461 5.48812 13.0963C5.41425 13.1094 4.5077 13.018 3.70187 12.6132C3.59443 12.5479 3.54071 12.5871 3.52728 12.7046C3.52056 12.8743 3.53399 13.031 3.55414 13.2203C3.76231 14.8264 4.91061 16.315 6.47526 16.8961C6.66328 16.9744 6.86474 17.0397 7.06619 17.0724C6.71029 17.1507 6.34095 17.2029 5.31352 17.1246C5.18593 17.0985 5.13893 17.1638 5.18593 17.2813C5.95818 19.3248 7.61684 19.932 8.86587 20.2715C9.03375 20.2976 9.20163 20.2976 9.36951 20.3368C9.3628 20.3498 9.34937 20.3498 9.34265 20.3629C8.93302 20.9766 7.49597 21.4271 6.83116 21.6556C5.61571 22.0669 4.29953 22.2497 3.01692 22.1322C2.80875 22.1061 2.76846 22.1061 2.71474 22.1322C2.66102 22.1648 2.70802 22.2105 2.77517 22.2628C3.03707 22.4325 3.29896 22.5762 3.56757 22.7198C4.38011 23.1376 5.23294 23.4706 6.11935 23.7122C10.6991 24.9396 15.8631 24.0386 19.3013 20.7154C22.0008 18.1039 22.9477 14.5065 22.9477 10.9026C22.9477 10.759 23.1223 10.6806 23.223 10.6088C23.9281 10.093 24.4855 9.47933 25.0092 8.7938C25.1301 8.63711 25.1167 8.50001 25.1167 8.44777C25.1167 8.44125 25.1167 8.42819 25.1167 8.42819C25.1234 8.38902 25.1368 8.4086 25.0428 8.44777Z" fill="black"/>
<path fill-rule="evenodd" clip-rule="evenodd" d="M10.1144 24.1966C10.1144 24.1548 10.512 24.1966 10.1144 24.1966C10.1144 24.1757 10.1616 24.1966 10.1144 24.1966Z" fill="black"/>
<path fill-rule="evenodd" clip-rule="evenodd" d="M18.0453 6.31891C18.0186 6.34095 17.9851 6.34095 17.9517 6.31891C17.9918 6.31891 18.0253 6.31891 18.0453 6.31891Z" fill="black"/>
</g>
</svg>
