<svg width="27" height="25" viewBox="0 0 27 25" fill="none" xmlns="http://www.w3.org/2000/svg">
<mask id="mask0" mask-type="alpha" maskUnits="userSpaceOnUse" x="0" y="0" width="27" height="25">
<rect width="26.916" height="24.2363" fill="#C4C4C4"/>
</mask>
<g mask="url(#mask0)">
<path d="M26.019 10.6314C26.019 7.24268 23.4864 4.48828 20.3534 4.48828H5.66588C2.53284 4.48828 0.000244141 7.23433 0.000244141 10.6314V18.0933C0.000244141 21.4821 2.53284 24.2365 5.66588 24.2365H20.3534C23.4787 24.2365 26.019 21.4904 26.019 18.0933V10.6314ZM16.7508 14.738L10.8927 18.2185C10.6387 18.3688 10.4078 18.1684 10.4078 17.8513V10.6982C10.4078 10.381 10.6464 10.1807 10.9004 10.3393L16.797 14.0035C17.0587 14.1704 17.0125 14.5794 16.7508 14.738Z" fill="white"/>
</g>
</svg>
