<svg width="58" height="23" viewBox="0 0 58 23" fill="none" xmlns="http://www.w3.org/2000/svg">
<path d="M23.2068 13.1948H27.4132V15.2881H19.7915V13.5327L23.9189 8.57377H19.8113V6.48047H27.2398V8.23586L23.2068 13.1948Z" fill="#00102C"/>
<path d="M36.8375 11.729H30.4643C30.7649 12.8393 31.5549 13.3878 32.8209 13.3878C33.8018 13.3878 34.7025 13.0982 35.5253 12.5343L36.5062 14.2568C35.4463 15.0785 34.1825 15.48 32.7112 15.48C31.1775 15.48 30.0068 15.0291 29.1851 14.1438C28.3787 13.2584 27.9673 12.1635 27.9673 10.8601C27.9673 9.52379 28.3941 8.42886 29.2323 7.55994C30.0705 6.67457 31.1775 6.23901 32.5368 6.23901C33.8171 6.23901 34.8605 6.64056 35.6833 7.43048C36.5062 8.21931 36.9165 9.29888 36.9165 10.667C36.9176 10.9731 36.8858 11.3274 36.8375 11.729ZM30.4501 9.92643H34.5292C34.2922 8.91269 33.5648 8.28404 32.5368 8.28404C31.5252 8.28514 30.7189 8.89623 30.4501 9.92643Z" fill="#00102C"/>
<path d="M40.1716 15.287H37.6899V3.1134H40.1716V15.287Z" fill="#00102C"/>
<path d="M47.8801 6.46502H50.2202V15.288H47.8801V14.3862C47.1373 15.1421 46.2519 15.513 45.2075 15.513C43.9743 15.513 42.9463 15.062 42.1399 14.1767C41.3336 13.2748 40.9386 12.1646 40.9386 10.8272C40.9386 9.50623 41.3489 8.41241 42.1564 7.54349C42.9628 6.67457 43.9908 6.23901 45.2086 6.23901C46.2519 6.23901 47.1384 6.6263 47.8812 7.39867L47.8801 6.46502ZM44.0369 12.5343C44.4636 12.9852 44.9859 13.2101 45.6343 13.2101C46.2827 13.2101 46.8049 12.9852 47.2317 12.5178C47.6585 12.0505 47.8801 11.5041 47.8801 10.859C47.8801 10.215 47.6595 9.66751 47.2317 9.21659C46.8038 8.76568 46.2827 8.54077 45.6343 8.54077C44.9859 8.54077 44.4636 8.76568 44.0369 9.21659C43.6265 9.66751 43.4203 10.215 43.4203 10.859C43.4203 11.5205 43.6254 12.068 44.0369 12.5343Z" fill="#00102C"/>
<path d="M50.7445 13.9035L51.9623 12.2611C52.7051 13.0335 53.5279 13.4208 54.444 13.4208C55.0606 13.4208 55.5038 13.1465 55.5038 12.712C55.5038 12.4542 55.3294 12.2447 54.9662 12.068C54.839 12.0044 54.4912 11.8749 53.9382 11.6808C53.3842 11.4712 53.0057 11.3264 52.8159 11.2298C51.7879 10.7307 51.2667 9.94182 51.2667 8.89517C51.2667 8.08989 51.5673 7.43052 52.1828 6.93133C52.7983 6.43214 53.6211 6.17542 54.6502 6.17542C55.8999 6.17542 56.9432 6.57696 57.7814 7.3987L56.6262 9.04109C55.9778 8.49363 55.2975 8.21935 54.602 8.21935C54.0479 8.21935 53.7001 8.47717 53.7001 8.848C53.7001 9.16945 53.9536 9.41191 54.4747 9.58855C55.4073 9.89355 56.0875 10.1525 56.5296 10.3938C57.5104 10.9248 57.9997 11.6654 57.9997 12.6473C57.9997 13.4691 57.6684 14.1613 57.0189 14.7077C56.3705 15.2552 55.5159 15.5294 54.4418 15.5294C52.9113 15.5294 51.6771 14.982 50.7445 13.9035Z" fill="#00102C"/>
<path d="M21.9016 21.8895C21.3179 21.8895 20.8384 21.7074 20.4654 21.342C20.0957 20.9723 19.9114 20.5005 19.9114 19.9256C19.9114 19.3464 20.0979 18.8768 20.472 18.5169C20.8505 18.1472 21.3343 17.9629 21.9224 17.9629C22.3141 17.9629 22.6695 18.0561 22.9866 18.2438C23.3037 18.4314 23.5374 18.6925 23.6877 19.0304L22.833 19.489C22.6136 19.1335 22.3174 18.9558 21.9432 18.9558C21.6701 18.9558 21.4397 19.049 21.2521 19.2366C21.0699 19.4188 20.9789 19.6492 20.9789 19.9278C20.9789 20.2153 21.0677 20.4501 21.2455 20.6322C21.4276 20.8143 21.6558 20.9054 21.9301 20.9054C22.1166 20.9054 22.291 20.856 22.4534 20.7584C22.6158 20.6607 22.7354 20.5334 22.8122 20.3787L23.6811 20.8922C23.5165 21.1983 23.2762 21.4408 22.9592 21.6207C22.641 21.7995 22.2888 21.8895 21.9016 21.8895Z" fill="#FD1884"/>
<path d="M27.5517 21.9104C26.9592 21.9104 26.4732 21.7217 26.0947 21.3421C25.7206 20.9636 25.5341 20.4941 25.5341 19.9323C25.5341 19.3706 25.7206 18.9043 26.0947 18.5302C26.4732 18.1473 26.9592 17.9553 27.5517 17.9553C28.154 17.9553 28.6411 18.1473 29.0152 18.5302C29.3937 18.9087 29.5835 19.3761 29.5835 19.9323C29.5835 20.4842 29.3937 20.9537 29.0152 21.3421C28.6378 21.7206 28.1496 21.9104 27.5517 21.9104ZM28.5094 19.9257C28.5094 19.657 28.4162 19.4288 28.2286 19.2411C28.041 19.0491 27.8161 18.9537 27.5517 18.9537C27.2873 18.9537 27.0612 19.0491 26.8747 19.2411C26.6926 19.4233 26.6016 19.6515 26.6016 19.9257C26.6016 20.2088 26.6926 20.4436 26.8747 20.6301C27.0612 20.8177 27.2873 20.911 27.5517 20.911C27.8161 20.911 28.0421 20.8177 28.2286 20.6301C28.4162 20.4348 28.5094 20.2 28.5094 19.9257Z" fill="#FD1884"/>
<path d="M32.7717 21.8072H31.6976V18.0583H32.7443V18.5784C32.8441 18.3962 33.001 18.247 33.2128 18.1307C33.4245 18.0144 33.6626 17.9563 33.9281 17.9563C34.334 17.9563 34.6785 18.0912 34.9616 18.36C35.2446 18.6288 35.3861 19.015 35.3861 19.5164V21.8083H34.3121V19.7973C34.3121 19.5285 34.2462 19.3189 34.1135 19.1675C33.9807 19.0172 33.803 18.9415 33.5803 18.9415C33.3389 18.9415 33.1436 19.0227 32.9955 19.184C32.8474 19.3463 32.7728 19.5592 32.7728 19.8236V21.8072H32.7717Z" fill="#FD1884"/>
<path d="M41.3369 19.8434C41.3369 19.9531 41.326 20.1034 41.3029 20.2954H38.5459C38.6731 20.7649 39.0132 20.9997 39.5651 20.9997C39.9842 20.9997 40.3748 20.879 40.7346 20.6377L41.1592 21.3694C40.7028 21.7161 40.1553 21.8895 39.5179 21.8895C38.8564 21.8895 38.3484 21.7008 37.9918 21.3212C37.6408 20.9427 37.4652 20.4775 37.4652 19.9256C37.4652 19.365 37.6473 18.8976 38.0127 18.5235C38.3725 18.1494 38.8498 17.9629 39.4422 17.9629C39.9897 17.9629 40.4428 18.1318 40.8037 18.4687C41.1592 18.8066 41.3369 19.2641 41.3369 19.8434ZM39.9996 19.0161C39.8471 18.8932 39.6605 18.8318 39.4422 18.8318C39.2228 18.8318 39.033 18.8932 38.8706 19.0161C38.7082 19.139 38.5985 19.3102 38.5393 19.5296H40.3046C40.253 19.3102 40.1521 19.139 39.9996 19.0161Z" fill="#FD1884"/>
<path d="M45.257 21.8895C44.6734 21.8895 44.1939 21.7074 43.8209 21.342C43.4512 20.9723 43.2668 20.5005 43.2668 19.9256C43.2668 19.3464 43.4534 18.8768 43.8275 18.5169C44.206 18.1472 44.6898 17.9629 45.2779 17.9629C45.6695 17.9629 46.025 18.0561 46.3421 18.2438C46.6591 18.4314 46.8928 18.6925 47.0431 19.0304L46.1885 19.489C45.969 19.1335 45.6728 18.9558 45.2987 18.9558C45.0255 18.9558 44.7951 19.049 44.6075 19.2366C44.4254 19.4188 44.3343 19.6492 44.3343 19.9278C44.3343 20.2153 44.4232 20.4501 44.6009 20.6322C44.7831 20.8143 45.0113 20.9054 45.2855 20.9054C45.4721 20.9054 45.6465 20.856 45.8089 20.7584C45.9712 20.6607 46.0908 20.5334 46.1676 20.3787L47.0365 20.8922C46.872 21.1983 46.6317 21.4408 46.3146 21.6207C45.9965 21.7995 45.6443 21.8895 45.257 21.8895Z" fill="#FD1884"/>
<path d="M51.5368 20.7397L51.8374 21.5944C51.5182 21.7995 51.1353 21.9026 50.6876 21.9026C49.7935 21.9026 49.347 21.3991 49.347 20.3908V18.947H48.7512V18.0572H49.3535V16.7297H50.421V18.0572H51.6246V18.947H50.421V20.2877C50.421 20.7123 50.5878 20.924 50.9202 20.924C51.0936 20.924 51.2987 20.8626 51.5368 20.7397Z" fill="#FD1884"/>
<path d="M56.5715 18.4545V18.0574H57.5842V21.8062H56.5715V21.4233C56.2523 21.7426 55.8672 21.9028 55.4152 21.9028C54.882 21.9028 54.4387 21.7141 54.0877 21.3345C53.741 20.956 53.5676 20.482 53.5676 19.9115C53.5676 19.3553 53.7432 18.8901 54.0942 18.516C54.4409 18.1462 54.8809 17.9619 55.4141 17.9619C55.8672 17.963 56.2523 18.1265 56.5715 18.4545ZM54.6428 19.9258C54.6428 20.2044 54.7317 20.4414 54.9094 20.6378C55.0959 20.8298 55.3263 20.9252 55.6006 20.9252C55.8793 20.9252 56.1086 20.8276 56.2918 20.6312C56.4783 20.4304 56.5726 20.1956 56.5726 19.9269C56.5726 19.6581 56.4794 19.4255 56.2918 19.2291C56.1042 19.0371 55.8749 18.9416 55.6006 18.9416C55.3263 18.9416 55.097 19.0371 54.9094 19.2291C54.7317 19.42 54.6428 19.6526 54.6428 19.9258Z" fill="#FD1884"/>
<path d="M6.50997 22.3392L0.555907 16.2787C-0.0113031 15.7005 -0.00472043 14.7724 0.563587 14.1942L6.50997 8.12272C7.07718 7.54454 7.99986 7.54454 8.56707 8.12272L14.5211 14.1832C15.0883 14.7614 15.0883 15.7005 14.5211 16.2776L8.56707 22.3381C7.99986 22.9174 7.07828 22.9174 6.50997 22.3392Z" fill="#D6006C"/>
<path d="M0.825852 15.3561H7.35042C7.76952 15.3561 8.17326 15.1882 8.47167 14.8887L14.5311 8.71194C15.3671 7.87594 14.8284 6.34655 13.6578 6.34216H8.81617C8.42998 6.34216 8.06025 6.49795 7.78817 6.77553L0.565836 14.192C-0.00795728 14.7483 0.308012 15.3561 0.825852 15.3561Z" fill="#FD64C2"/>
<path d="M14.8503 6.98289C14.8185 6.939 14.7823 6.89621 14.7428 6.85672L14.6199 6.73165C14.4071 6.56049 14.1273 6.43433 13.7949 6.43433H8.80408C8.41241 6.43433 8.03829 6.5945 7.76182 6.87866L3.23291 11.4504L6.73162 15.0138C7.17705 15.4669 7.89786 15.4669 8.34109 15.0138L14.7263 8.51227C15.1301 8.02734 15.186 7.47659 14.8503 6.98289Z" fill="#FD1884"/>
<path d="M7.76294 6.87756C8.03941 6.59341 8.41463 6.43323 8.8052 6.43323H13.796C14.1109 6.43323 14.3786 6.54733 14.587 6.70422H14.5947L8.34331 0.339832C7.89898 -0.113277 7.17708 -0.113277 6.73384 0.339832L0.334348 6.85672C-0.109985 7.30983 -0.109985 8.0427 0.334348 8.49581L3.23513 11.4493L7.76294 6.87756Z" fill="#FD64C2"/>
</svg>
