<svg width="12" height="17" viewBox="0 0 12 17" fill="none" xmlns="http://www.w3.org/2000/svg">
<path fill-rule="evenodd" clip-rule="evenodd" d="M0 6C0 2.68286 2.68286 0 6 0C9.31714 0 12 2.68286 12 6C12 9.57429 8.21143 14.5029 6.66 16.38C6.31714 16.7914 5.69143 16.7914 5.34857 16.38C3.78857 14.5029 0 9.57429 0 6ZM3.85706 6.00019C3.85706 7.18305 4.81706 8.14305 5.99992 8.14305C7.18277 8.14305 8.14277 7.18305 8.14277 6.00019C8.14277 4.81733 7.18277 3.85733 5.99992 3.85733C4.81706 3.85733 3.85706 4.81733 3.85706 6.00019Z" fill="white"/>
</svg>
