<svg width="44" height="44" viewBox="0 0 44 44" fill="none" xmlns="http://www.w3.org/2000/svg">
<path fill-rule="evenodd" clip-rule="evenodd" d="M3.65967 5.50008C3.65967 6.50841 4.48467 7.33341 5.493 7.33341H7.32633L13.9263 21.2484L11.4513 25.7217C10.113 28.1784 11.873 31.1667 14.6597 31.1667H34.8263C35.8347 31.1667 36.6597 30.3417 36.6597 29.3334C36.6597 28.3251 35.8347 27.5001 34.8263 27.5001H14.6597L16.6763 23.8334H30.3347C31.7097 23.8334 32.9197 23.0817 33.543 21.9451L40.1063 10.0467C40.7847 8.83675 39.9047 7.33341 38.5113 7.33341H11.378L10.1497 4.71175C9.85633 4.07008 9.19633 3.66675 8.49967 3.66675H5.493C4.48467 3.66675 3.65967 4.49175 3.65967 5.50008ZM14.6594 33.0001C12.6428 33.0001 11.0111 34.6501 11.0111 36.6667C11.0111 38.6834 12.6428 40.3334 14.6594 40.3334C16.6761 40.3334 18.3261 38.6834 18.3261 36.6667C18.3261 34.6501 16.6761 33.0001 14.6594 33.0001ZM29.3444 36.6667C29.3444 34.6501 30.9761 33.0001 32.9928 33.0001C35.0094 33.0001 36.6594 34.6501 36.6594 36.6667C36.6594 38.6834 35.0094 40.3334 32.9928 40.3334C30.9761 40.3334 29.3444 38.6834 29.3444 36.6667Z" fill="currentColor"/>
</svg>
