<svg width="34" height="42" viewBox="0 0 34 42" fill="none" xmlns="http://www.w3.org/2000/svg">
<path d="M15.9 0.869494C7.13667 1.43783 0.5 9.1195 0.5 17.9012V30.1662C0.5 33.2095 2.95667 35.6662 6 35.6662H7.83333C9.85 35.6662 11.5 34.0162 11.5 31.9995V24.6662C11.5 22.6495 9.85 20.9995 7.83333 20.9995H4.16667V17.8645C4.16667 10.8245 9.59333 4.70116 16.615 4.49949C23.8933 4.29783 29.8333 10.1095 29.8333 17.3328V20.9995H26.1667C24.15 20.9995 22.5 22.6495 22.5 24.6662V31.9995C22.5 34.0162 24.15 35.6662 26.1667 35.6662H29.8333V37.4995H18.8333C17.825 37.4995 17 38.3245 17 39.3328C17 40.3412 17.825 41.1662 18.8333 41.1662H28C31.0433 41.1662 33.5 38.7095 33.5 35.6662V17.3328C33.5 7.85449 25.5067 0.246161 15.9 0.869494Z" fill="currentColor"/>
</svg>
