<?xml version="1.0" encoding="utf-8"?>
<!-- Generator: Adobe Illustrator 23.0.6, SVG Export Plug-In . SVG Version: 6.00 Build 0)  -->
<svg version="1.1" xmlns="http://www.w3.org/2000/svg" xmlns:xlink="http://www.w3.org/1999/xlink" x="0px" y="0px"
	 viewBox="0 0 24 24" style="enable-background: new 0 0 24 24;" xml:space="preserve">
<path d="M20,8H4C3.4,8,3,7.6,3,7v0c0-0.6,0.4-1,1-1h16c0.6,0,1,0.4,1,1v0C21,7.6,20.6,8,20,8z"/>
<path d="M20,13H4c-0.6,0-1-0.4-1-1v0c0-0.6,0.4-1,1-1h16c0.6,0,1,0.4,1,1v0C21,12.6,20.6,13,20,13z"/>
<path d="M20,18H4c-0.6,0-1-0.4-1-1v0c0-0.6,0.4-1,1-1h16c0.6,0,1,0.4,1,1v0C21,17.6,20.6,18,20,18z"/>
</svg>
