<svg width="34" height="34" viewBox="0 0 34 34" fill="none" xmlns="http://www.w3.org/2000/svg">
<path d="M30.2399 22.9915L25.5833 22.4599C24.4649 22.3315 23.3649 22.7165 22.5766 23.5049L19.2033 26.8782C14.0149 24.2382 9.76161 20.0032 7.1216 14.7965L10.5133 11.4049C11.3016 10.6165 11.6866 9.51654 11.5583 8.3982L11.0266 3.7782C10.8066 1.92654 9.24827 0.533203 7.37827 0.533203H4.2066C2.13494 0.533203 0.411605 2.25654 0.539938 4.3282C1.5116 19.9849 14.0333 32.4882 29.6716 33.4599C31.7433 33.5882 33.4666 31.8649 33.4666 29.7932V26.6215C33.4849 24.7699 32.0916 23.2115 30.2399 22.9915Z" fill="currentColor"/>
</svg>
