<svg width="44" height="44" viewBox="0 0 44 44" fill="none" xmlns="http://www.w3.org/2000/svg">
<path fill-rule="evenodd" clip-rule="evenodd" d="M21.9252 13.8285H21.8702C20.8802 13.8285 20.0736 13.0219 20.0736 12.0135V6.45853C20.0736 5.46853 20.8802 4.66187 21.8886 4.66187H21.9436C22.9336 4.66187 23.7402 5.46853 23.7402 6.45853V12.0319C23.7402 13.0219 22.9336 13.8285 21.9252 13.8285ZM33.4569 17.6969C32.7419 18.4119 31.6052 18.4119 30.8902 17.6969L30.8719 17.6602C30.1569 16.9635 30.1569 15.8085 30.8719 15.1119L34.8502 11.1702C35.5469 10.4735 36.7019 10.4735 37.3986 11.1702C38.1136 11.8669 38.1136 13.0219 37.3986 13.7185C36.2436 14.8735 34.5936 16.5419 33.4569 17.6969ZM10.3752 17.6785C11.0719 18.3935 12.2269 18.3935 12.9419 17.6785C13.6386 16.9819 13.6386 15.8269 12.9419 15.1302L9.00023 11.1519C8.30356 10.4369 7.14856 10.4369 6.45189 11.1519L6.41523 11.1702C5.70023 11.8852 5.70023 13.0219 6.41523 13.7185C7.57023 14.8552 9.23856 16.5235 10.3752 17.6785ZM1.39189 30.7502C13.1436 20.3735 30.8536 20.3735 42.6052 30.7502C44.1636 32.1252 44.1636 34.5635 42.7152 36.0302L40.4786 38.2669C39.1586 39.5869 37.0686 39.6969 35.6019 38.5419L31.9536 35.6452C31.0736 34.9485 30.5602 33.8852 30.5602 32.7669V27.9819C25.0052 26.1669 19.0102 26.1852 13.4736 27.9819V32.7485C13.4736 33.8669 12.9602 34.9302 12.0802 35.6269L8.41356 38.5419C6.9469 39.6969 4.85689 39.5869 3.5369 38.2669L1.30023 36.0302C-0.166439 34.5635 -0.166439 32.1252 1.39189 30.7502Z" fill="currentColor"/>
</svg>
