<svg width="40" height="40" viewBox="0 0 40 40" fill="none" xmlns="http://www.w3.org/2000/svg">
<path fill-rule="evenodd" clip-rule="evenodd" d="M19.7621 0C8.85344 0 0 8.85344 0 19.7621C0 30.6709 8.85344 39.5243 19.7621 39.5243C30.6709 39.5243 39.5243 30.6709 39.5243 19.7621C39.5243 8.85344 30.6709 0 19.7621 0ZM17.7859 35.4335C9.97989 34.4652 3.95243 27.8251 3.95243 19.7621C3.95243 18.5369 4.11053 17.3709 4.36743 16.2247L13.8335 25.6908V27.667C13.8335 29.8408 15.6121 31.6194 17.7859 31.6194V35.4335ZM27.667 27.667C29.4456 27.667 30.908 28.8132 31.4218 30.4139C33.9909 27.6077 35.5719 23.8727 35.5719 19.7621C35.5719 13.1418 31.4811 7.47009 25.6908 5.1184V5.92864C25.6908 8.10248 23.9122 9.88107 21.7384 9.88107H17.7859V13.8335C17.7859 14.9204 16.8966 15.8097 15.8097 15.8097H11.8573V19.7621H23.7146C24.8015 19.7621 25.6908 20.6514 25.6908 21.7384V27.667H27.667Z" fill="black"/>
</svg>
